{
  "accessors": [
    {
      "bufferView": 2,
      "componentType": 5126,
      "count": 2452,
      "max": [
        37.753170013427734,
        10.971405029296875,
        18.02722930908203
      ],
      "min": [
        -38.01752853393555,
        -55.14280700683594,
        -51.19625473022461
      ],
      "type": "VEC3"
    },
    {
      "bufferView": 2,
      "byteOffset": 29424,
      "componentType": 5126,
      "count": 2452,
      "max": [
        1.0,
        1.0,
        1.0
      ],
      "min": [
        -1.0,
        -1.0,
        -1.0
      ],
      "type": "VEC3"
    },
    {
      "bufferView": 1,
      "componentType": 5126,
      "count": 2452,
      "max": [
        0.9994405508041382,
        0.9665839076042175
      ],
      "min": [
        0.000559389591217041,
        0.0005593883106485009
      ],
      "type": "VEC2"
    },
    {
      "bufferView": 0,
      "componentType": 5125,
      "count": 3984,
      "type": "SCALAR"
    }
  ],
  "asset": {
    "extras": {
      "author": "AnnPiskacov (https://sketchfab.com/AndreaPiskacova)",
      "license": "CC-BY-4.0 (http://creativecommons.org/licenses/by/4.0/)",
      "source": "https://sketchfab.com/3d-models/coat-rack-2f81b07be01545efa6a570095792cc86",
      "title": "Coat rack"
    },
    "generator": "Sketchfab-15.5.0",
    "version": "2.0"
  },
  "bufferViews": [
    {
      "buffer": 0,
      "byteLength": 15936,
      "name": "floatBufferViews",
      "target": 34963
    },
    {
      "buffer": 0,
      "byteLength": 19616,
      "byteOffset": 15936,
      "byteStride": 8,
      "name": "floatBufferViews",
      "target": 34962
    },
    {
      "buffer": 0,
      "byteLength": 58848,
      "byteOffset": 35552,
      "byteStride": 12,
      "name": "floatBufferViews",
      "target": 34962
    }
  ],
  "buffers": [
    {
      "byteLength": 94400,
      "uri": "scene.bin"
    }
  ],
  "materials": [
    {
      "doubleSided": true,
      "name": "Coat_rack_black",
      "pbrMetallicRoughness": {
        "baseColorFactor": [
          0.00309566,
          0.00309566,
          0.00309566,
          1.0
        ],
        "metallicFactor": 0.0,
        "roughnessFactor": 0.999153142489154
      }
    }
  ],
  "meshes": [
    {
      "name": "Coat rack_Coat rack black_0",
      "primitives": [
        {
          "attributes": {
            "NORMAL": 1,
            "POSITION": 0,
            "TEXCOORD_0": 2
          },
          "indices": 3,
          "material": 0,
          "mode": 4
        }
      ]
    }
  ],
  "nodes": [
    {
      "children": [
        1
      ],
      "matrix": [
        1.0,
        0.0,
        0.0,
        0.0,
        0.0,
        2.220446049250313e-16,
        -1.0,
        0.0,
        0.0,
        1.0,
        2.220446049250313e-16,
        0.0,
        0.0,
        0.0,
        0.0,
        1.0
      ],
      "name": "Sketchfab_model"
    },
    {
      "children": [
        2
      ],
      "matrix": [
        0.009999999776482582,
        0.0,
        0.0,
        0.0,
        0.0,
        0.0,
        0.009999999776482582,
        0.0,
        0.0,
        -0.009999999776482582,
        0.0,
        0.0,
        0.0,
        0.0,
        0.0,
        1.0
      ],
      "name": "6328bbbaef814b559125ccc4f83c6bf6.fbx"
    },
    {
      "children": [
        3
      ],
      "name": "RootNode"
    },
    {
      "children": [
        4
      ],
      "matrix": [
        1.2323254346847534,
        0.0,
        0.0,
        0.0,
        0.0,
        -1.3150113607170364e-07,
        -0.8071482181548966,
        0.0,
        0.0,
        2.6713085174560196,
        -4.352113985291264e-07,
        0.0,
        0.22383034229278564,
        134.4346466064453,
        -20.66291046142578,
        1.0
      ],
      "name": "Coat rack"
    },
    {
      "mesh": 0,
      "name": "Coat rack_Coat rack black_0"
    }
  ],
  "scene": 0,
  "scenes": [
    {
      "name": "Sketchfab_Scene",
      "nodes": [
        0
      ]
    }
  ]
}
