{
  "accessors": [
    {
      "bufferView": 1,
      "componentType": 5126,
      "count": 1464,
      "max": [
        1.389989972114563,
        1.4502700567245483,
        4.215970039367676
      ],
      "min": [
        -1.3840500116348267,
        -1.4694700241088867,
        -1.3769700527191162
      ],
      "type": "VEC3"
    },
    {
      "bufferView": 1,
      "byteOffset": 17568,
      "componentType": 5126,
      "count": 1464,
      "max": [
        1.0,
        1.0,
        1.0
      ],
      "min": [
        -1.0,
        -1.0,
        -1.0
      ],
      "type": "VEC3"
    },
    {
      "bufferView": 0,
      "componentType": 5125,
      "count": 2496,
      "type": "SCALAR"
    }
  ],
  "asset": {
    "extras": {
      "author": "Tiko (https://sketchfab.com/tikoavp)",
      "license": "CC-BY-4.0 (http://creativecommons.org/licenses/by/4.0/)",
      "source": "https://sketchfab.com/3d-models/fire-hydrant-low-poly-style-8992acdda2f1471fb64e925d3f558296",
      "title": "Fire Hydrant (Low Poly Style)"
    },
    "generator": "Sketchfab-12.66.0",
    "version": "2.0"
  },
  "bufferViews": [
    {
      "buffer": 0,
      "byteLength": 9984,
      "name": "floatBufferViews",
      "target": 34963
    },
    {
      "buffer": 0,
      "byteLength": 35136,
      "byteOffset": 9984,
      "byteStride": 12,
      "name": "floatBufferViews",
      "target": 34962
    }
  ],
  "buffers": [
    {
      "byteLength": 45120,
      "uri": "scene.bin"
    }
  ],
  "materials": [
    {
      "doubleSided": true,
      "name": "Material.001",
      "pbrMetallicRoughness": {
        "baseColorFactor": [
          0.8000000715255737,
          0.027153877541422813,
          0.021181790158152573,
          1.0
        ],
        "metallicFactor": 0.056431607172172264,
        "roughnessFactor": 0.6
      }
    }
  ],
  "meshes": [
    {
      "name": "Fire Hydrant_0",
      "primitives": [
        {
          "attributes": {
            "NORMAL": 1,
            "POSITION": 0
          },
          "indices": 2,
          "material": 0,
          "mode": 4
        }
      ]
    }
  ],
  "nodes": [
    {
      "children": [
        1
      ],
      "matrix": [
        1.0,
        0.0,
        0.0,
        0.0,
        0.0,
        2.220446049250313e-16,
        -1.0,
        0.0,
        0.0,
        1.0,
        2.220446049250313e-16,
        0.0,
        0.0,
        0.0,
        0.0,
        1.0
      ],
      "name": "Sketchfab_model"
    },
    {
      "children": [
        2,
        4
      ],
      "name": "Root"
    },
    {
      "children": [
        3
      ],
      "matrix": [
        -0.29086000000000006,
        0.9551700000000001,
        -0.05519000000000001,
        0.0,
        -0.7711,
        -0.19988000000000003,
        0.6045200000000001,
        0.0,
        0.5663900000000001,
        0.21839000000000003,
        0.7946700000000001,
        0.0,
        4.076250000000001,
        1.00545,
        5.903860000000001,
        1.0
      ],
      "name": "Lamp"
    },
    {
      "name": "Lamp"
    },
    {
      "children": [
        5
      ],
      "matrix": [
        0.12788,
        0.0,
        0.0,
        0.0,
        0.0,
        0.12788,
        0.0,
        0.0,
        0.0,
        0.0,
        0.14094000000000004,
        0.0,
        0.0,
        0.028170000000000004,
        0.20696000000000003,
        1.0
      ],
      "name": "Fire Hydrant"
    },
    {
      "mesh": 0,
      "name": "Fire Hydrant_0"
    }
  ],
  "scene": 0,
  "scenes": [
    {
      "name": "Sketchfab_Scene",
      "nodes": [
        0
      ]
    }
  ]
}
